<svg xmlns="http://www.w3.org/2000/svg" viewBox="0 0 100 100" fill="none">

  <!-- Background circle -->
  <circle cx="50" cy="50" r="48" fill="#0f0f0f" stroke="#6366f1" stroke-width="2" opacity="0.9"/>

  <!-- Outer glow ring -->
  <circle cx="50" cy="50" r="42" stroke="#6366f1" stroke-width="0.5" opacity="0.3"/>

  <!-- Hub center dot -->
  <circle cx="50" cy="50" r="7" fill="#6366f1"/>
  <circle cx="50" cy="50" r="4" fill="#a5b4fc"/>

  <!-- Spoke 1 - Top -->
  <line x1="50" y1="43" x2="50" y2="22" stroke="#6366f1" stroke-width="2" stroke-linecap="round"/>
  <circle cx="50" cy="19" r="5" fill="#6366f1" opacity="0.9"/>
  <circle cx="50" cy="19" r="2.5" fill="#e0e7ff"/>

  <!-- Spoke 2 - Top Right -->
  <line x1="56" y1="46" x2="72" y2="30" stroke="#8b5cf6" stroke-width="2" stroke-linecap="round"/>
  <circle cx="75" cy="27" r="5" fill="#8b5cf6" opacity="0.9"/>
  <circle cx="75" cy="27" r="2.5" fill="#ede9fe"/>

  <!-- Spoke 3 - Right -->
  <line x1="57" y1="50" x2="78" y2="50" stroke="#a78bfa" stroke-width="2" stroke-linecap="round"/>
  <circle cx="81" cy="50" r="5" fill="#a78bfa" opacity="0.9"/>
  <circle cx="81" cy="50" r="2.5" fill="#f5f3ff"/>

  <!-- Spoke 4 - Bottom Right -->
  <line x1="56" y1="54" x2="72" y2="70" stroke="#8b5cf6" stroke-width="2" stroke-linecap="round"/>
  <circle cx="75" cy="73" r="5" fill="#8b5cf6" opacity="0.9"/>
  <circle cx="75" cy="73" r="2.5" fill="#ede9fe"/>

  <!-- Spoke 5 - Bottom -->
  <line x1="50" y1="57" x2="50" y2="78" stroke="#6366f1" stroke-width="2" stroke-linecap="round"/>
  <circle cx="50" cy="81" r="5" fill="#6366f1" opacity="0.9"/>
  <circle cx="50" cy="81" r="2.5" fill="#e0e7ff"/>

  <!-- Spoke 6 - Bottom Left -->
  <line x1="44" y1="54" x2="28" y2="70" stroke="#8b5cf6" stroke-width="2" stroke-linecap="round"/>
  <circle cx="25" cy="73" r="5" fill="#8b5cf6" opacity="0.9"/>
  <circle cx="25" cy="73" r="2.5" fill="#ede9fe"/>

  <!-- Spoke 7 - Left -->
  <line x1="43" y1="50" x2="22" y2="50" stroke="#a78bfa" stroke-width="2" stroke-linecap="round"/>
  <circle cx="19" cy="50" r="5" fill="#a78bfa" opacity="0.9"/>
  <circle cx="19" cy="50" r="2.5" fill="#f5f3ff"/>

  <!-- Spoke 8 - Top Left -->
  <line x1="44" y1="46" x2="28" y2="30" stroke="#8b5cf6" stroke-width="2" stroke-linecap="round"/>
  <circle cx="25" cy="27" r="5" fill="#8b5cf6" opacity="0.9"/>
  <circle cx="25" cy="27" r="2.5" fill="#ede9fe"/>

</svg>